<?xml version="1.0" encoding="utf-8"?>
<!-- Generator: Adobe Illustrator 27.5.0, SVG Export Plug-In . SVG Version: 6.00 Build 0)  -->
<svg version="1.1" id="Capa_1" xmlns="http://www.w3.org/2000/svg" xmlns:xlink="http://www.w3.org/1999/xlink" x="0px" y="0px"
	 viewBox="0 0 800 800" style="enable-background:new 0 0 800 800;" xml:space="preserve">
<style type="text/css">
	.st0{fill:#371A45;}
</style>
<path class="st0" d="M104.3,44.7C69.4,65.4,0.7,144.3,0,165v34.4C0,242.7,40.6,281,77.5,281c44.3,0,81.3-36.7,81.3-80.3
	c0,43.6,35.5,80.3,79.9,80.3c44.3,0,78.8-36.7,78.8-80.3c0,43.6,37.9,80.3,82.2,80.3h0.8c44.4,0,82.3-36.7,82.3-80.3
	c0,43.6,34.5,80.3,78.8,80.3c44.3,0,79.9-36.7,79.9-80.3c0,43.6,36.9,80.3,81.1,80.3c37,0,77.6-38.3,77.6-81.7V165
	c-0.8-20.7-69.4-99.6-104.4-120.3c-108.5-3.9-183.6-4.6-295.6-4.6c-112.1,0.1-264.8,1.8-295.7,4.6L104.3,44.7z M316.9,260.5
	c-4.6,7.7-9.6,14.2-15.6,19.9v0.1c-16.8,16.3-39.7,26.4-65,26.4c-25.4,0-48.3-10.2-65-26.6c-6.1-5.9-10.7-12.2-15-19.7
	c-4.2,7.4-10,13.8-16.1,19.7c-16.8,16.4-39.7,26.6-65,26.6c0,0,0,0-0.1,0c-3,0-6.1-0.9-8.7-1.8c-3.5,37.1-5.1,72.5-5.6,98.4v0.1
	c-0.1,13.2-0.1,23.8-0.3,38.8c0.8,77.9-7.7,252.2,34.4,295.1c65.1,15.1,184.9,22,304.9,22.1h0.1c120.2-0.1,239.8-7,304.9-22.1
	c42.1-42.8,33.6-217.2,34.4-295.1c-0.1-15-0.1-25.6-0.3-38.8v-0.1c-0.5-25.9-2-61.3-5.6-98.4c-2.5,0.9-5.7,1.8-8.7,1.8h-0.1
	c-25.3,0-48.2-10.2-65-26.6h0.1c-6.1-5.9-12-12.2-16.1-19.7h-0.1c-4.2,7.4-8.9,13.8-14.9,19.7c-16.7,16.4-39.6,26.6-65,26.6
	c-25.3,0-48.2-10.2-65-26.6c-6-5.7-11.1-12.4-15.4-19.7l-0.3-0.4c-4.3,7.7-9.5,14.3-15.4,20.1c-16.8,16.4-39.7,26.6-65,26.6h-0.1
	c-0.8,0-1.7,0-2.6-0.1c-0.9,0.1-1.8,0.1-2.7,0.1c0,0,0,0-0.1,0c-25.3,0-48.2-10.2-64.8-26.6c-6-5.7-11.1-12.4-15.2-19.7l-0.3-0.4
	L316.9,260.5z M250.1,346.9c26.4,0.1,49.9,0,79,31.8c22.9-2.3,46.9-3.5,70.8-3.5c24,0,47.9,1.2,70.8,3.5
	c29.2-31.8,52.6-31.8,79-31.8h0.1c12.5,0,62.5,0,97.3,97.8l37.4,134.2c27.7,99.9-8.9,102.4-54.4,102.4
	C562.5,678.8,525,629.6,525,580.3c-37.5,6.3-81.3,9.3-125,9.3s-87.5-3-124.9-9.3c0,49.2-37.5,98.4-105.2,100.9
	c-45.7-0.1-82.3-2.5-54.6-102.4l37.4-134.2C187.6,346.9,237.6,346.9,250.1,346.9L250.1,346.9z M400,423.8
	c-0.1,0-71.2,65.5-84.1,88.7l46.6-1.8v40.6c0,2,18.8,1.2,37.5,0.3c18.7,0.9,37.4,1.7,37.4-0.3v-40.6l46.7,1.8
	C471.2,489.3,400,423.8,400,423.8z"/>
</svg>
