<?xml version="1.0" encoding="UTF-8"?>
<svg id="Capa_1" data-name="Capa 1" xmlns="http://www.w3.org/2000/svg" viewBox="0 0 474 156.81">
  <defs>
    <style>
      .cls-1 {
        fill: #93c2e9;
      }

      .cls-2 {
        fill: #233240;
      }
    </style>
  </defs>
  <polygon class="cls-1" points="20.94 111.88 96.9 35.92 105.96 44.96 29.9 120.93 20.94 111.88"/>
  <polygon class="cls-1" points="25.39 52.86 0 78.42 18.44 96.92 27.11 87.97 17.94 78.42 34.83 62.19 25.39 52.86"/>
  <polygon class="cls-1" points="108.56 60.03 98.89 69.58 107.92 78.42 91.89 94.89 100.89 103.86 126.92 78.42 108.56 60.03"/>
  <rect class="cls-2" x="157.92" width="27.94" height="125.92"/>
  <polyline class="cls-2" points="205.86 35 205.86 53.75 249.03 53.75 201.94 106.58 201.94 125.92 285.86 125.92 285.86 107 235.03 107 282.86 53.83 283.03 35 206.36 35"/>
  <polyline class="cls-2" points="297.96 35 297.96 53.75 341.12 53.75 294.04 106.58 294.04 125.92 377.96 125.92 377.96 107 327.12 107 374.96 53.83 375.12 35 298.46 35"/>
  <path class="cls-2" d="m381.11,35l32.56,86.25s8,18.22-23.56,15.67l-.22,19.89h25.33s14.22-1.44,22.67-23.67l36.11-98.14h-25.11l-20.22,61.36-20.78-61.36h-26.78Z"/>
</svg>